<mxfile host="app.diagrams.net" modified="2023-09-03T13:42:52.201Z" agent="Mozilla/5.0 (Windows NT 10.0; Win64; x64) AppleWebKit/537.36 (KHTML, like Gecko) Chrome/116.0.0.0 Safari/537.36" etag="6XcyG1FdXbb0EHZvNWy2" version="21.7.2" type="github">
  <diagram name="페이지-1" id="TQbearPS4DOwluHn80RY">
    <mxGraphModel dx="1434" dy="750" grid="1" gridSize="10" guides="1" tooltips="1" connect="1" arrows="1" fold="1" page="1" pageScale="1" pageWidth="827" pageHeight="1169" math="0" shadow="0">
      <root>
        <mxCell id="0" />
        <mxCell id="1" parent="0" />
        <mxCell id="ggVODv0i9N97W79Z6Vnp-1" value="이용자&lt;br&gt;" style="shape=umlActor;verticalLabelPosition=bottom;verticalAlign=top;html=1;outlineConnect=0;" vertex="1" parent="1">
          <mxGeometry x="70" y="450" width="30" height="60" as="geometry" />
        </mxCell>
        <mxCell id="ggVODv0i9N97W79Z6Vnp-2" value="게시판 서비스&lt;br&gt;" style="shape=umlFrame;whiteSpace=wrap;html=1;pointerEvents=0;width=100;height=20;" vertex="1" parent="1">
          <mxGeometry x="240" y="250" width="850" height="640" as="geometry" />
        </mxCell>
        <mxCell id="ggVODv0i9N97W79Z6Vnp-16" style="rounded=0;orthogonalLoop=1;jettySize=auto;html=1;endArrow=none;endFill=0;" edge="1" parent="1" source="ggVODv0i9N97W79Z6Vnp-3" target="ggVODv0i9N97W79Z6Vnp-1">
          <mxGeometry relative="1" as="geometry" />
        </mxCell>
        <mxCell id="ggVODv0i9N97W79Z6Vnp-3" value="회원 가입&lt;br&gt;" style="rounded=1;whiteSpace=wrap;html=1;arcSize=40;fontColor=#000000;fillColor=#ffffc0;strokeColor=#ff0000;" vertex="1" parent="1">
          <mxGeometry x="280" y="410" width="120" height="40" as="geometry" />
        </mxCell>
        <mxCell id="ggVODv0i9N97W79Z6Vnp-18" style="rounded=0;orthogonalLoop=1;jettySize=auto;html=1;exitX=0;exitY=0.5;exitDx=0;exitDy=0;endArrow=none;endFill=0;" edge="1" parent="1" source="ggVODv0i9N97W79Z6Vnp-5" target="ggVODv0i9N97W79Z6Vnp-1">
          <mxGeometry relative="1" as="geometry" />
        </mxCell>
        <mxCell id="ggVODv0i9N97W79Z6Vnp-22" style="edgeStyle=none;shape=connector;rounded=0;orthogonalLoop=1;jettySize=auto;html=1;exitX=1;exitY=0;exitDx=0;exitDy=0;entryX=0.5;entryY=1;entryDx=0;entryDy=0;labelBackgroundColor=default;strokeColor=default;fontFamily=Helvetica;fontSize=11;fontColor=default;endArrow=classic;endFill=1;dashed=1;" edge="1" parent="1" source="ggVODv0i9N97W79Z6Vnp-5" target="ggVODv0i9N97W79Z6Vnp-7">
          <mxGeometry relative="1" as="geometry" />
        </mxCell>
        <mxCell id="ggVODv0i9N97W79Z6Vnp-5" value="게시판 보기&lt;br&gt;" style="rounded=1;whiteSpace=wrap;html=1;arcSize=40;fontColor=#000000;fillColor=#ffffc0;strokeColor=#ff0000;" vertex="1" parent="1">
          <mxGeometry x="280" y="550" width="120" height="40" as="geometry" />
        </mxCell>
        <mxCell id="ggVODv0i9N97W79Z6Vnp-19" style="rounded=0;orthogonalLoop=1;jettySize=auto;html=1;exitX=0;exitY=0.5;exitDx=0;exitDy=0;endArrow=none;endFill=0;" edge="1" parent="1" source="ggVODv0i9N97W79Z6Vnp-6" target="ggVODv0i9N97W79Z6Vnp-1">
          <mxGeometry relative="1" as="geometry" />
        </mxCell>
        <mxCell id="ggVODv0i9N97W79Z6Vnp-24" style="edgeStyle=none;shape=connector;rounded=0;orthogonalLoop=1;jettySize=auto;html=1;exitX=1;exitY=0;exitDx=0;exitDy=0;entryX=0.5;entryY=1;entryDx=0;entryDy=0;labelBackgroundColor=default;strokeColor=default;fontFamily=Helvetica;fontSize=11;fontColor=default;endArrow=classic;endFill=1;dashed=1;" edge="1" parent="1" source="ggVODv0i9N97W79Z6Vnp-6" target="ggVODv0i9N97W79Z6Vnp-7">
          <mxGeometry relative="1" as="geometry" />
        </mxCell>
        <mxCell id="ggVODv0i9N97W79Z6Vnp-6" value="게시글 보기" style="rounded=1;whiteSpace=wrap;html=1;arcSize=40;fontColor=#000000;fillColor=#ffffc0;strokeColor=#ff0000;" vertex="1" parent="1">
          <mxGeometry x="270" y="690" width="120" height="40" as="geometry" />
        </mxCell>
        <mxCell id="ggVODv0i9N97W79Z6Vnp-17" style="rounded=0;orthogonalLoop=1;jettySize=auto;html=1;endArrow=none;endFill=0;" edge="1" parent="1" source="ggVODv0i9N97W79Z6Vnp-7" target="ggVODv0i9N97W79Z6Vnp-1">
          <mxGeometry relative="1" as="geometry" />
        </mxCell>
        <mxCell id="ggVODv0i9N97W79Z6Vnp-20" value="&amp;lt;&amp;lt;include&amp;gt;&amp;gt;&lt;br&gt;" style="edgeStyle=orthogonalEdgeStyle;rounded=0;orthogonalLoop=1;jettySize=auto;html=1;exitX=1;exitY=0.5;exitDx=0;exitDy=0;entryX=0;entryY=0.5;entryDx=0;entryDy=0;endArrow=block;endFill=1;dashed=1;" edge="1" parent="1" source="ggVODv0i9N97W79Z6Vnp-7" target="ggVODv0i9N97W79Z6Vnp-8">
          <mxGeometry relative="1" as="geometry">
            <Array as="points">
              <mxPoint x="660" y="300" />
              <mxPoint x="660" y="300" />
            </Array>
          </mxGeometry>
        </mxCell>
        <mxCell id="ggVODv0i9N97W79Z6Vnp-7" value="회원 로그인&lt;br&gt;" style="rounded=1;whiteSpace=wrap;html=1;arcSize=40;fontColor=#000000;fillColor=#ffffc0;strokeColor=#ff0000;" vertex="1" parent="1">
          <mxGeometry x="450" y="280" width="120" height="40" as="geometry" />
        </mxCell>
        <mxCell id="ggVODv0i9N97W79Z6Vnp-8" value="인증&lt;br&gt;" style="rounded=1;whiteSpace=wrap;html=1;arcSize=40;fontColor=#000000;fillColor=#ffffc0;strokeColor=#ff0000;" vertex="1" parent="1">
          <mxGeometry x="750" y="280" width="120" height="40" as="geometry" />
        </mxCell>
        <mxCell id="ggVODv0i9N97W79Z6Vnp-21" value="&amp;lt;&amp;lt;extend&amp;gt;&amp;gt;&lt;br&gt;" style="rounded=0;orthogonalLoop=1;jettySize=auto;html=1;exitX=0;exitY=0.5;exitDx=0;exitDy=0;entryX=1;entryY=0.5;entryDx=0;entryDy=0;endArrow=classic;endFill=1;dashed=1;" edge="1" parent="1" source="ggVODv0i9N97W79Z6Vnp-9" target="ggVODv0i9N97W79Z6Vnp-7">
          <mxGeometry relative="1" as="geometry" />
        </mxCell>
        <mxCell id="ggVODv0i9N97W79Z6Vnp-9" value="로그인 실패&lt;br&gt;" style="rounded=1;whiteSpace=wrap;html=1;arcSize=40;fontColor=#000000;fillColor=#ffffc0;strokeColor=#ff0000;" vertex="1" parent="1">
          <mxGeometry x="720" y="420" width="120" height="40" as="geometry" />
        </mxCell>
        <mxCell id="ggVODv0i9N97W79Z6Vnp-25" value="&amp;lt;&amp;lt;extend&amp;gt;&amp;gt;&lt;br&gt;" style="edgeStyle=none;shape=connector;rounded=0;orthogonalLoop=1;jettySize=auto;html=1;exitX=0;exitY=0.5;exitDx=0;exitDy=0;entryX=1;entryY=0.5;entryDx=0;entryDy=0;labelBackgroundColor=default;strokeColor=default;fontFamily=Helvetica;fontSize=11;fontColor=default;endArrow=classic;endFill=1;dashed=1;" edge="1" parent="1" source="ggVODv0i9N97W79Z6Vnp-10" target="ggVODv0i9N97W79Z6Vnp-5">
          <mxGeometry relative="1" as="geometry" />
        </mxCell>
        <mxCell id="ggVODv0i9N97W79Z6Vnp-10" value="게시판 정렬하기" style="rounded=1;whiteSpace=wrap;html=1;arcSize=40;fontColor=#000000;fillColor=#ffffc0;strokeColor=#ff0000;" vertex="1" parent="1">
          <mxGeometry x="540" y="470" width="120" height="40" as="geometry" />
        </mxCell>
        <mxCell id="ggVODv0i9N97W79Z6Vnp-26" style="edgeStyle=none;shape=connector;rounded=0;orthogonalLoop=1;jettySize=auto;html=1;exitX=0;exitY=0.5;exitDx=0;exitDy=0;entryX=1;entryY=0.5;entryDx=0;entryDy=0;labelBackgroundColor=default;strokeColor=default;fontFamily=Helvetica;fontSize=11;fontColor=default;endArrow=classic;endFill=1;dashed=1;" edge="1" parent="1" source="ggVODv0i9N97W79Z6Vnp-11" target="ggVODv0i9N97W79Z6Vnp-5">
          <mxGeometry relative="1" as="geometry" />
        </mxCell>
        <mxCell id="ggVODv0i9N97W79Z6Vnp-11" value="게시판 검색&lt;br&gt;" style="rounded=1;whiteSpace=wrap;html=1;arcSize=40;fontColor=#000000;fillColor=#ffffc0;strokeColor=#ff0000;" vertex="1" parent="1">
          <mxGeometry x="540" y="590" width="120" height="40" as="geometry" />
        </mxCell>
        <mxCell id="ggVODv0i9N97W79Z6Vnp-27" style="edgeStyle=none;shape=connector;rounded=0;orthogonalLoop=1;jettySize=auto;html=1;exitX=0;exitY=0.5;exitDx=0;exitDy=0;entryX=1;entryY=0.5;entryDx=0;entryDy=0;labelBackgroundColor=default;strokeColor=default;fontFamily=Helvetica;fontSize=11;fontColor=default;endArrow=classic;endFill=1;dashed=1;" edge="1" parent="1" source="ggVODv0i9N97W79Z6Vnp-12" target="ggVODv0i9N97W79Z6Vnp-6">
          <mxGeometry relative="1" as="geometry" />
        </mxCell>
        <mxCell id="ggVODv0i9N97W79Z6Vnp-12" value="게시글 쓰기, 수정, 삭제&lt;br&gt;" style="rounded=1;whiteSpace=wrap;html=1;arcSize=40;fontColor=#000000;fillColor=#ffffc0;strokeColor=#ff0000;" vertex="1" parent="1">
          <mxGeometry x="540" y="690" width="120" height="40" as="geometry" />
        </mxCell>
        <mxCell id="ggVODv0i9N97W79Z6Vnp-28" style="edgeStyle=none;shape=connector;rounded=0;orthogonalLoop=1;jettySize=auto;html=1;exitX=0;exitY=0.5;exitDx=0;exitDy=0;entryX=1;entryY=0.5;entryDx=0;entryDy=0;labelBackgroundColor=default;strokeColor=default;fontFamily=Helvetica;fontSize=11;fontColor=default;endArrow=classic;endFill=1;dashed=1;" edge="1" parent="1" source="ggVODv0i9N97W79Z6Vnp-13" target="ggVODv0i9N97W79Z6Vnp-6">
          <mxGeometry relative="1" as="geometry" />
        </mxCell>
        <mxCell id="ggVODv0i9N97W79Z6Vnp-13" value="댓글 보기, 쓰기, 수정, 삭제&lt;br&gt;" style="rounded=1;whiteSpace=wrap;html=1;arcSize=40;fontColor=#000000;fillColor=#ffffc0;strokeColor=#ff0000;" vertex="1" parent="1">
          <mxGeometry x="540" y="760" width="120" height="40" as="geometry" />
        </mxCell>
      </root>
    </mxGraphModel>
  </diagram>
</mxfile>
